HIERARCHY
ROOT Hips
{
    OFFSET 0.000000 0.000000 0.000000
    CHANNELS 6 Xposition Yposition Zposition Zrotation Xrotation Yrotation
    JOINT Spine
    {
        OFFSET 0.000002 7.164412 0.000002
        CHANNELS 3 Zrotation Xrotation Yrotation
        JOINT Spine1
        {
            OFFSET -0.000001 20.126801 -0.000002
            CHANNELS 3 Zrotation Xrotation Yrotation
            JOINT Neck
            {
                OFFSET 0.000000 21.094069 0.000000
                CHANNELS 3 Zrotation Xrotation Yrotation
                JOINT Head
                {
                    OFFSET -0.000001 12.838277 1.776080
                    CHANNELS 3 Zrotation Xrotation Yrotation
                    End Site
                    {
                        OFFSET 0.000000 17.760757 0.000000
                    }
                }
            }
            JOINT LeftShoulder
            {
                OFFSET 3.550527 15.465700 -0.908803
                CHANNELS 3 Zrotation Xrotation Yrotation
                JOINT LeftArm
                {
                    OFFSET 12.513296 -0.000006 -0.000002
                    CHANNELS 3 Zrotation Xrotation Yrotation
                    JOINT LeftForeArm
                    {
                        OFFSET 24.225996 -0.000003 0.000001
                        CHANNELS 3 Zrotation Xrotation Yrotation
                        JOINT LeftHand
                        {
                            OFFSET 20.711399 -0.000005 -0.000004
                            CHANNELS 3 Zrotation Xrotation Yrotation
                            JOINT LeftHandThumb1
                            {
                                OFFSET 2.121969 -2.411331 3.375859
                                CHANNELS 3 Zrotation Xrotation Yrotation
                                JOINT LeftHandThumb2
                                {
                                    OFFSET 2.803208 0.000003 0.000001
                                    CHANNELS 3 Zrotation Xrotation Yrotation
                                    JOINT LeftHandThumb3
                                    {
                                        OFFSET 2.395929 0.000004 -0.000003
                                        CHANNELS 3 Zrotation Xrotation Yrotation
                                        End Site
                                        {
                                            OFFSET 2.127676 0.000000 0.000000
                                        }
                                    }
                                }
                            }
                            JOINT LeftHandIndex1
                            {
                                OFFSET 8.680775 0.000005 3.375860
                                CHANNELS 3 Zrotation Xrotation Yrotation
                                JOINT LeftHandIndex2
                                {
                                    OFFSET 4.218178 -0.000000 -0.000000
                                    CHANNELS 3 Zrotation Xrotation Yrotation
                                    JOINT LeftHandIndex3
                                    {
                                        OFFSET 2.109086 -0.000004 0.000002
                                        CHANNELS 3 Zrotation Xrotation Yrotation
                                        End Site
                                        {
                                            OFFSET 1.872952 0.000000 0.000000
                                        }
                                    }
                                }
                            }
                            JOINT LeftHandMiddle1
                            {
                                OFFSET 8.680778 -0.000002 1.118860
                                CHANNELS 3 Zrotation Xrotation Yrotation
                                JOINT LeftHandMiddle2
                                {
                                    OFFSET 4.640003 -0.000004 -0.000001
                                    CHANNELS 3 Zrotation Xrotation Yrotation
                                    JOINT LeftHandMiddle3
                                    {
                                        OFFSET 2.530911 0.000002 -0.000001
                                        CHANNELS 3 Zrotation Xrotation Yrotation
                                        End Site
                                        {
                                            OFFSET 2.247544 0.000000 0.000000
                                        }
                                    }
                                }
                            }
                            JOINT LeftHandRing1
                            {
                                OFFSET 8.198517 0.000004 -1.118860
                                CHANNELS 3 Zrotation Xrotation Yrotation
                                JOINT LeftHandRing2
                                {
                                    OFFSET 4.218183 -0.000002 -0.000002
                                    CHANNELS 3 Zrotation Xrotation Yrotation
                                    JOINT LeftHandRing3
                                    {
                                        OFFSET 2.109094 0.000005 -0.000000
                                        CHANNELS 3 Zrotation Xrotation Yrotation
                                        End Site
                                        {
                                            OFFSET 1.872952 0.000000 0.000000
                                        }
                                    }
                                }
                            }
                            JOINT LeftHandPinky1
                            {
                                OFFSET 7.716254 0.000002 -3.375863
                                CHANNELS 3 Zrotation Xrotation Yrotation
                                JOINT LeftHandPinky2
                                {
                                    OFFSET 3.374536 0.000002 0.000001
                                    CHANNELS 3 Zrotation Xrotation Yrotation
                                    JOINT LeftHandPinky3
                                    {
                                        OFFSET 1.687274 -0.000002 -0.000004
                                        CHANNELS 3 Zrotation Xrotation Yrotation
                                        End Site
                                        {
                                            OFFSET 1.498360 0.000000 0.000000
                                        }
                                    }
                                }
                            }
                        }
                    }
                }
            }
            JOINT RightShoulder
            {
                OFFSET -3.550529 15.465699 -0.908801
                CHANNELS 3 Zrotation Xrotation Yrotation
                JOINT RightArm
                {
                    OFFSET -12.513299 -0.000001 -0.000000
                    CHANNELS 3 Zrotation Xrotation Yrotation
                    JOINT RightForeArm
                    {
                        OFFSET -24.226000 -0.000003 -0.000001
                        CHANNELS 3 Zrotation Xrotation Yrotation
                        JOINT RightHand
                        {
                            OFFSET -20.711397 -0.000003 -0.000002
                            CHANNELS 3 Zrotation Xrotation Yrotation
                            JOINT RightHandThumb1
                            {
                                OFFSET -2.121970 -2.411331 3.375859
                                CHANNELS 3 Zrotation Xrotation Yrotation
                                JOINT RightHandThumb2
                                {
                                    OFFSET -2.803209 -0.000004 0.000004
                                    CHANNELS 3 Zrotation Xrotation Yrotation
                                    JOINT RightHandThumb3
                                    {
                                        OFFSET -2.395928 0.000004 -0.000003
                                        CHANNELS 3 Zrotation Xrotation Yrotation
                                        End Site
                                        {
                                            OFFSET -2.127676 0.000000 0.000000
                                        }
                                    }
                                }
                            }
                            JOINT RightHandIndex1
                            {
                                OFFSET -8.680779 0.000001 3.375859
                                CHANNELS 3 Zrotation Xrotation Yrotation
                                JOINT RightHandIndex2
                                {
                                    OFFSET -4.218179 0.000003 -0.000001
                                    CHANNELS 3 Zrotation Xrotation Yrotation
                                    JOINT RightHandIndex3
                                    {
                                        OFFSET -2.109090 -0.000002 0.000000
                                        CHANNELS 3 Zrotation Xrotation Yrotation
                                        End Site
                                        {
                                            OFFSET -1.872952 0.000000 0.000000
                                        }
                                    }
                                }
                            }
                            JOINT RightHandMiddle1
                            {
                                OFFSET -8.680779 -0.000002 1.118859
                                CHANNELS 3 Zrotation Xrotation Yrotation
                                JOINT RightHandMiddle2
                                {
                                    OFFSET -4.639998 0.000003 -0.000001
                                    CHANNELS 3 Zrotation Xrotation Yrotation
                                    JOINT RightHandMiddle3
                                    {
                                        OFFSET -2.530910 -0.000000 -0.000000
                                        CHANNELS 3 Zrotation Xrotation Yrotation
                                        End Site
                                        {
                                            OFFSET -2.247544 0.000000 0.000000
                                        }
                                    }
                                }
                            }
                            JOINT RightHandRing1
                            {
                                OFFSET -8.198519 -0.000004 -1.118859
                                CHANNELS 3 Zrotation Xrotation Yrotation
                                JOINT RightHandRing2
                                {
                                    OFFSET -4.218180 -0.000005 0.000000
                                    CHANNELS 3 Zrotation Xrotation Yrotation
                                    JOINT RightHandRing3
                                    {
                                        OFFSET -2.109090 0.000002 0.000002
                                        CHANNELS 3 Zrotation Xrotation Yrotation
                                        End Site
                                        {
                                            OFFSET -1.872952 0.000000 0.000000
                                        }
                                    }
                                }
                            }
                            JOINT RightHandPinky1
                            {
                                OFFSET -7.716249 0.000004 -3.375858
                                CHANNELS 3 Zrotation Xrotation Yrotation
                                JOINT RightHandPinky2
                                {
                                    OFFSET -3.374539 0.000003 -0.000000
                                    CHANNELS 3 Zrotation Xrotation Yrotation
                                    JOINT RightHandPinky3
                                    {
                                        OFFSET -1.687270 -0.000004 -0.000001
                                        CHANNELS 3 Zrotation Xrotation Yrotation
                                        End Site
                                        {
                                            OFFSET -1.498360 0.000000 0.000000
                                        }
                                    }
                                }
                            }
                        }
                    }
                }
            }
        }
    }
    JOINT LeftUpLeg
    {
        OFFSET 8.880377 0.000003 0.000001
        CHANNELS 3 Zrotation Xrotation Yrotation
        JOINT LeftLeg
        {
            OFFSET -0.000000 -40.387413 0.000001
            CHANNELS 3 Zrotation Xrotation Yrotation
            JOINT LeftFoot
            {
                OFFSET -0.000000 -36.911304 0.000000
                CHANNELS 3 Zrotation Xrotation Yrotation
                JOINT LeftToeBase
                {
                    OFFSET 0.000003 -5.772240 13.320597
                    CHANNELS 3 Zrotation Xrotation Yrotation
                    End Site
                    {
                        OFFSET 0.000000 0.000000 3.552151
                    }
                }
            }
        }
    }
    JOINT RightUpLeg
    {
        OFFSET -8.880380 -0.000003 -0.000001
        CHANNELS 3 Zrotation Xrotation Yrotation
        JOINT RightLeg
        {
            OFFSET 0.000001 -40.387405 0.000000
            CHANNELS 3 Zrotation Xrotation Yrotation
            JOINT RightFoot
            {
                OFFSET -0.000001 -36.911304 -0.000001
                CHANNELS 3 Zrotation Xrotation Yrotation
                JOINT RightToeBase
                {
                    OFFSET 0.000000 -5.772241 13.320600
                    CHANNELS 3 Zrotation Xrotation Yrotation
                    End Site
                    {
                        OFFSET 0.000000 0.000000 3.552151
                    }
                }
            }
        }
    }
}
MOTION
Frames: 5
Frame Time: 0.013889
61.205490    82.040009    -8.883363    2.461478    5.587450    -3.717955    0.774705    -16.800621    2.678461    -3.196699    15.516585    3.328418    -16.037468    -10.815726    -6.623951    0.854943    3.197597    -3.524501    -6.675542    6.728378    -6.752719    -18.975126    53.368484    -30.870857    -0.226013    -0.251211    -41.977631    4.743809    45.766060    -20.006815    19.188513    43.749954    -42.561375    -14.222781    -0.997408    23.297325    -0.000000    0.000000    -0.000000    6.022320    17.906973    -8.376269    5.729577    0.000000    0.000003    5.729576    -0.000000    -0.000001    5.800518    8.954668    -4.165076    5.729570    0.000002    -0.000000    5.729579    0.000000    0.000001    5.800517    -8.954674    -4.823688    5.729573    0.000003    0.000002    5.729580    0.000003    -0.000008    6.022315    -17.906971    -9.601259    5.729578    0.000000    -0.000000    5.729581    -0.000000    -0.000002    -2.135265    8.242028    5.985629    36.941887    55.536339    30.492624    -4.132021    3.861978    47.006023    -37.830284    12.204802    16.595705    -27.168411    37.771534    50.155991    17.564121    -2.432578    -23.197292    -0.000000    0.000000    -0.000000    -6.022320    17.906971    8.408861    -5.729578    0.000001    0.000006    -5.729577    -0.000001    -0.000004    -5.800512    8.954667    4.181384    -5.729578    0.000002    -0.000001    -5.729580    0.000002    -0.000001    -5.800512    -8.954676    2.582372    -5.729579    0.000005    0.000002    -5.729575    -0.000000    0.000002    -6.022316    -17.906986    5.118634    -5.729584    0.000004    -0.000006    -5.729573    -0.000007    0.000006    -2.470739    -10.699056    9.810089    0.000000    25.700861    -0.000001    2.856900    -12.086149    -0.154389    0.000000    2.388113    0.000000    -2.382229    -19.072315    -4.182071    0.000000    42.115978    -0.000000    6.118652    -11.563492    -0.145778    -0.000000    -8.553427    0.000001    
61.244385    82.081169    -8.893388    2.872296    5.568327    -4.210992    0.776135    -16.783030    2.686123    -2.966046    15.595218    3.276473    -16.505329    -10.955589    -6.333223    0.629260    3.172469    -3.086591    -6.757504    6.715115    -7.094017    -18.328854    53.664394    -32.716553    -0.671058    -0.796727    -40.108471    2.173298    46.317413    -17.597197    19.117599    43.767551    -42.395226    -14.118259    -0.952404    23.299105    -0.000000    0.000000    -0.000000    6.022326    17.906973    -7.896945    5.729573    -0.000000    -0.000002    5.729571    0.000000    0.000001    5.800517    8.954667    -3.925408    5.729579    0.000003    -0.000005    5.729579    -0.000007    0.000003    5.800519    -8.954674    -4.823690    5.729576    0.000000    0.000003    5.729579    0.000003    -0.000004    6.022325    -17.906973    -9.601263    5.729578    -0.000003    0.000002    5.729578    0.000003    0.000001    -2.299534    8.329500    6.181000    34.419361    56.478397    31.933538    -5.114270    4.648317    47.839722    -35.865131    13.730456    16.895069    -25.691454    39.117939    49.062412    18.308908    -2.751172    -23.163599    -0.000000    0.000000    -0.000000    -6.022323    17.906979    9.975279    -5.729578    0.000001    0.000006    -5.729579    0.000000    -0.000008    -5.800516    8.954671    4.964581    -5.729580    0.000003    0.000005    -5.729577    0.000000    -0.000002    -5.800519    -8.954669    2.866413    -5.729581    0.000005    0.000005    -5.729568    0.000003    0.000011    -6.022322    -17.906973    5.686712    -5.729579    0.000000    -0.000003    -5.729576    0.000003    0.000004    -2.848841    -10.941752    9.992473    0.000001    26.098284    -0.000000    2.745161    -11.666459    0.161277    -0.000000    2.188098    -0.000000    -2.900272    -18.346544    -4.663673    0.000001    40.782440    -0.000001    6.196541    -12.309264    0.599954    0.000001    -7.787729    -0.000001    
61.263073    82.179031    -8.892769    3.429840    5.599741    -4.777433    0.722404    -16.667658    2.517180    -2.618695    15.668184    3.030439    -17.112646    -11.467238    -5.898746    0.257288    3.040195    -2.361816    -6.965451    6.653516    -7.425521    -17.886543    53.905468    -34.922787    -1.260434    -1.648245    -37.413620    -1.907018    46.620697    -13.712231    18.963137    43.853340    -42.225994    -14.025992    -0.912676    23.300606    -0.000000    0.000000    -0.000000    6.022324    17.906979    -7.193596    5.729581    0.000002    -0.000003    5.729578    -0.000003    -0.000000    5.800517    8.954676    -3.573742    5.729579    -0.000003    0.000002    5.729575    0.000000    -0.000000    5.800519    -8.954669    -4.823690    5.729578    0.000003    -0.000005    5.729575    -0.000003    0.000006    6.022326    -17.906971    -9.601264    5.729579    -0.000000    -0.000002    5.729576    0.000003    0.000001    -2.368176    8.013946    5.758662    32.820560    56.830078    32.440853    -6.207534    5.264630    49.849232    -33.974312    17.834002    16.648905    -26.092562    38.592754    47.352371    18.157318    -2.686379    -23.170801    -0.000000    0.000000    -0.000000    -6.022319    17.906973    10.795382    -5.729577    -0.000001    -0.000001    -5.729578    -0.000001    0.000002    -5.800513    8.954669    5.374636    -5.729577    -0.000003    -0.000001    -5.729578    0.000001    0.000005    -5.800513    -8.954671    3.032901    -5.729578    -0.000001    -0.000004    -5.729577    0.000000    -0.000001    -6.022320    -17.906977    6.019674    -5.729579    -0.000000    0.000001    -5.729580    -0.000000    0.000001    -3.289219    -11.517153    10.253853    -0.000000    26.979662    0.000001    2.406169    -10.978560    0.522556    0.000000    1.846413    0.000000    -3.530328    -17.448502    -5.248647    0.000001    38.988205    -0.000002    6.006237    -13.128513    1.374052    -0.000000    -6.644299    -0.000000    
61.325802    82.256317    -8.944229    3.853886    5.626072    -5.124951    0.684044    -16.560865    2.398586    -2.367316    15.643918    2.853317    -17.405581    -11.731792    -5.578968    0.049962    3.123575    -1.894303    -6.984310    6.635777    -7.892597    -17.376955    54.098255    -36.882824    -1.686230    -2.368122    -35.468292    -5.604981    46.633610    -10.045697    18.965343    43.826313    -42.126389    -13.904461    -0.860337    23.302483    -0.000000    0.000000    -0.000000    6.022315    17.906975    -6.652204    5.729579    -0.000002    -0.000002    5.729577    -0.000000    -0.000001    5.800513    8.954670    -3.303044    5.729573    -0.000002    0.000002    5.729579    0.000003    -0.000004    5.800519    -8.954673    -4.823694    5.729576    0.000000    0.000007    5.729579    0.000000    0.000002    6.022320    -17.906981    -9.601263    5.729573    0.000004    0.000005    5.729579    -0.000003    0.000000    -2.727476    7.833075    6.107732    31.642780    57.131943    32.356548    -5.917320    4.755381    51.345047    -32.271156    19.075817    17.348541    -28.375874    36.572983    48.146698    17.206501    -2.279395    -23.211985    -0.000000    0.000000    -0.000000    -6.022320    17.906977    11.029838    -5.729579    0.000001    0.000008    -5.729578    -0.000001    -0.000002    -5.800515    8.954673    5.491863    -5.729580    0.000001    0.000006    -5.729577    -0.000003    -0.000004    -5.800517    -8.954668    3.094687    -5.729578    -0.000003    -0.000001    -5.729578    0.000003    0.000003    -6.022318    -17.906981    6.143244    -5.729578    0.000003    0.000005    -5.729578    0.000000    -0.000001    -3.619560    -12.202591    10.353993    0.000000    28.029940    -0.000001    2.006743    -10.304512    0.674468    0.000000    1.558959    -0.000000    -4.040235    -16.883888    -5.650979    0.000002    37.744587    -0.000002    5.885344    -13.627799    1.948807    -0.000001    -5.795060    0.000001    
61.420029    82.337585    -9.015326    4.291064    5.678670    -5.433174    0.605773    -16.414225    2.142802    -2.066680    15.575963    2.535607    -17.611916    -12.089814    -5.087305    -0.169659    3.176208    -1.247117    -7.067599    6.644201    -8.378660    -17.021618    54.272705    -38.755531    -2.195526    -3.334921    -33.386471    -9.215192    46.284611    -6.323524    19.121851    43.697906    -42.130127    -13.720616    -0.781155    23.305119    -0.000000    0.000000    -0.000000    6.022319    17.906975    -6.213719    5.729579    -0.000002    0.000002    5.729579    0.000002    -0.000001    5.800519    8.954672    -3.083801    5.729576    -0.000005    0.000005    5.729576    0.000005    -0.000003    5.800508    -8.954679    -4.823687    5.729581    0.000003    0.000002    5.729585    -0.000000    -0.000003    6.022308    -17.906977    -9.601264    5.729586    0.000003    -0.000002    5.729575    0.000000    0.000003    -2.729436    7.570603    6.341842    30.058867    57.344963    32.517609    -5.627953    4.326977    52.561050    -30.204517    19.821236    18.693947    -31.063116    34.035625    49.964634    16.159460    -1.830243    -23.249527    -0.000000    0.000000    -0.000000    -6.022324    17.906979    11.114860    -5.729580    -0.000000    0.000001    -5.729578    -0.000001    0.000000    -5.800516    8.954667    5.534369    -5.729578    0.000003    0.000003    -5.729578    0.000002    -0.000001    -5.800513    -8.954670    3.189313    -5.729578    -0.000000    0.000001    -5.729578    0.000002    0.000001    -6.022319    -17.906971    6.332509    -5.729577    -0.000007    0.000001    -5.729581    0.000000    -0.000002    -3.944737    -13.079624    10.440126    -0.000000    29.313427    0.000000    1.768119    -9.359716    0.835670    0.000000    1.173572    0.000000    -4.554773    -16.480145    -5.910545    -0.000000    36.691895    0.000001    5.797647    -14.032711    2.446536    0.000001    -4.985213    -0.000003    
